<svg width="34" height="40" viewBox="0 0 34 40" fill="none" xmlns="http://www.w3.org/2000/svg">
<g id="Group">
<path id="Vector" d="M32 6.66664H26.8334C26.036 2.7893 22.6252 0.005 18.6667 0H15.3333C11.3748 0.005 7.964 2.7893 7.16665 6.66664H2.00001C1.07955 6.66664 0.333374 7.41281 0.333374 8.33328C0.333374 9.25375 1.07955 10 2.00001 10H3.66666V31.6666C3.6722 36.2667 7.39994 39.9945 12 40H22C26.6001 39.9945 30.3278 36.2667 30.3334 31.6666V10H32C32.9205 10 33.6667 9.25383 33.6667 8.33336C33.6667 7.41289 32.9205 6.66664 32 6.66664ZM15.3334 28.3334C15.3334 29.2538 14.5872 30 13.6667 30C12.7462 30 12 29.2538 12 28.3334V18.3334C12 17.4129 12.7462 16.6667 13.6667 16.6667C14.5871 16.6667 15.3333 17.4129 15.3333 18.3334V28.3334H15.3334ZM22 28.3334C22 29.2538 21.2538 30 20.3334 30C19.4129 30 18.6667 29.2538 18.6667 28.3334V18.3334C18.6667 17.4129 19.4129 16.6667 20.3334 16.6667C21.2538 16.6667 22 17.4129 22 18.3334V28.3334ZM10.6184 6.66664C11.3273 4.67047 13.2151 3.33586 15.3334 3.33328H18.6667C20.785 3.33586 22.6728 4.67047 23.3817 6.66664H10.6184Z" fill="#EB3D4D"/>
</g>
</svg>
